<svg xmlns="http://www.w3.org/2000/svg" width="20.845" height="15.499" viewBox="0 0 20.845 15.499"><defs><style>.a{fill:#fff;}.b,.c,.d{fill:none;stroke:#fff;}.b,.d{stroke-linecap:round;}.b{stroke-linejoin:round;}</style></defs><g transform="translate(0.561 0.5)"><g transform="translate(-979.583 -238.572)"><path class="a" d="M310.73,679.862l.487-.487a.614.614,0,0,1,.868.868l-1.534,1.534a.614.614,0,0,1-.868,0l-1.534-1.534a.614.614,0,1,1,.868-.868l.487.487v-.973a3.682,3.682,0,1,1,3.682,3.682.614.614,0,1,1,0-1.227,2.455,2.455,0,1,0-2.455-2.455Z" transform="translate(683 -429)"/><path class="b" d="M14512.625-1496.35l-11.042.067v-11.067l16.636-.078v6.8" transform="translate(-13522 1746)"/><path class="b" d="M14501.725-1505.787l8.21,6.359,8.249-6.322" transform="translate(-13522 1746)"/><path class="c" d="M14506.649-1501.483l-4.934,4.133" transform="translate(-13522 1746)"/><path class="d" d="M14513.019-1501.556l2.063,1.738" transform="translate(-13522 1746)"/></g></g></svg>